<?xml version="1.0" standalone="no"?>
<!DOCTYPE svg PUBLIC "-//W3C//DTD SVG 20010904//EN"
 "http://www.w3.org/TR/2001/REC-SVG-20010904/DTD/svg10.dtd">
<svg version="1.0" xmlns="http://www.w3.org/2000/svg"
 width="128.000000pt" height="128.000000pt" viewBox="0 0 128.000000 128.000000"
 preserveAspectRatio="xMidYMid meet">

<g transform="translate(0.000000,128.000000) scale(0.100000,-0.100000)"
fill="#000000" stroke="none">
<path d="M264 915 c-3 -8 -4 -20 -1 -27 3 -7 6 -3 6 9 1 12 9 24 19 26 16 4
16 5 -1 6 -10 0 -20 -6 -23 -14z"/>
<path d="M329 913 c21 -4 23 -8 17 -44 l-6 -39 77 2 78 2 -71 3 -71 4 1 37 c1
33 -2 37 -24 39 -24 1 -24 1 -1 -4z"/>
<path d="M50 685 l0 -205 40 0 c33 0 40 3 40 19 0 17 8 20 48 23 l47 3 3 58
c3 52 5 57 22 52 15 -5 24 3 40 32 l21 38 -6 -60 c-3 -33 -6 -68 -7 -77 -1 -9
-5 -16 -9 -15 -3 1 -18 -13 -33 -30 -15 -18 -41 -41 -57 -50 -16 -10 -29 -21
-29 -26 0 -4 5 -5 12 -1 6 4 8 3 5 -4 -10 -16 26 -72 46 -72 20 0 103 81 112
110 8 27 19 25 33 -4 6 -14 28 -43 48 -66 43 -47 78 -52 81 -10 l2 25 -9 -25
c-7 -18 -8 -10 -4 30 4 41 2 51 -6 40 -8 -11 -9 -4 -5 30 3 29 2 38 -3 25 -8
-18 -10 -18 -26 8 -10 15 -21 25 -25 23 -3 -2 -7 6 -8 17 0 12 -3 40 -6 62 -2
22 -3 32 0 23 5 -19 69 -36 83 -22 5 5 11 27 14 49 l5 40 -11 -42 c-8 -34 -15
-43 -32 -43 -39 0 -49 15 -42 59 6 37 4 41 -15 41 -20 0 -21 -4 -18 -72 l4
-73 -45 0 -45 0 3 75 2 75 -26 -50 c-33 -62 -32 -61 -46 -47 -21 21 -28 13
-29 -30 0 -24 -3 -37 -6 -30 -7 17 -139 17 -146 0 -3 -7 -6 56 -6 140 l-1 152
80 0 80 0 0 -62 c0 -64 13 -70 25 -13 5 23 4 26 -4 15 -8 -12 -11 -5 -11 28
l0 42 -90 0 -90 0 0 -205z"/>
<path d="M251 854 c0 -11 3 -14 6 -6 3 7 2 16 -1 19 -3 4 -6 -2 -5 -13z"/>
<path d="M512 824 c9 -3 19 -15 22 -27 4 -18 4 -18 3 3 -1 17 -8 25 -22 27
-14 1 -15 0 -3 -3z"/>
<path d="M131 705 c1 -52 5 -95 10 -95 5 0 9 43 9 95 0 59 -4 95 -10 95 -7 0
-10 -35 -9 -95z"/>
<path d="M522 750 c0 -14 2 -19 5 -12 2 6 2 18 0 25 -3 6 -5 1 -5 -13z"/>
<path d="M793 633 c-10 -10 -33 -18 -53 -18 -29 0 -35 -4 -36 -23 -1 -18 -1
-19 3 -2 7 30 46 25 82 -10 27 -27 33 -29 51 -18 11 7 20 16 20 20 0 5 -8 3
-19 -3 -26 -17 -51 -4 -51 25 0 29 33 44 55 26 9 -8 15 -8 15 -2 0 10 -23 22
-41 22 -5 0 -17 -8 -26 -17z"/>
<path d="M1099 633 c-13 -15 -12 -15 7 -3 29 18 54 6 54 -25 0 -30 -25 -43
-51 -26 -11 6 -19 8 -19 3 0 -4 9 -13 21 -20 18 -11 24 -11 40 4 10 9 19 27
19 39 0 42 -45 60 -71 28z"/>
<path d="M897 633 c-3 -5 10 -8 28 -8 18 0 31 3 28 8 -2 4 -15 7 -28 7 -13 0
-26 -3 -28 -7z"/>
<path d="M474 606 c-3 -8 -4 -23 -1 -33 3 -12 5 -8 6 10 1 23 5 27 30 27 24 0
31 -5 34 -25 4 -23 4 -23 3 2 -1 24 -6 28 -34 31 -22 2 -34 -2 -38 -12z"/>
<path d="M595 610 c-4 -6 -4 -14 -1 -17 3 -4 6 -1 6 5 0 15 46 16 53 2 3 -6 4
-5 3 2 -3 17 -52 23 -61 8z"/>
<path d="M582 560 c0 -14 2 -19 5 -12 2 6 2 18 0 25 -3 6 -5 1 -5 -13z"/>
<path d="M662 560 c0 -14 2 -19 5 -12 2 6 2 18 0 25 -3 6 -5 1 -5 -13z"/>
<path d="M762 550 c0 -14 2 -19 5 -12 2 6 2 18 0 25 -3 6 -5 1 -5 -13z"/>
<path d="M972 519 c-13 -16 -20 -29 -15 -29 5 0 19 14 31 30 29 39 14 38 -16
-1z"/>
<path d="M1042 504 l-33 -45 30 -53 c17 -29 31 -56 31 -60 0 -3 -13 -6 -30 -6
-24 0 -33 7 -48 36 -16 32 -20 34 -32 20 -11 -14 -11 -16 2 -11 10 4 19 -4 28
-24 11 -27 17 -31 51 -31 23 0 39 5 39 12 0 6 -14 35 -30 65 l-30 54 31 39
c18 22 30 42 28 44 -2 2 -19 -16 -37 -40z"/>
<path d="M1092 443 l-2 -113 40 0 40 0 0 110 c0 61 -3 110 -7 110 -5 0 -7 -47
-5 -105 l3 -105 -30 0 -30 0 -4 108 -3 107 -2 -112z"/>
<path d="M552 515 c0 -16 3 -41 7 -55 6 -22 8 -20 14 19 4 24 5 46 2 49 -3 3
-6 -6 -6 -19 -1 -21 -2 -21 -9 6 l-8 30 0 -30z"/>
<path d="M689 514 c-1 -29 -1 -29 -9 -4 -6 20 -8 21 -8 5 0 -11 3 -33 7 -50 7
-28 8 -27 15 18 4 27 5 51 2 55 -3 3 -6 -8 -7 -24z"/>
<path d="M752 485 c0 -16 2 -22 5 -12 2 9 2 23 0 30 -3 6 -5 -1 -5 -18z"/>
<path d="M615 450 c-4 -17 -5 -34 -2 -36 3 -3 8 9 12 26 4 17 5 34 2 36 -3 3
-8 -9 -12 -26z"/>
<path d="M742 420 c0 -14 2 -19 5 -12 2 6 2 18 0 25 -3 6 -5 1 -5 -13z"/>
<path d="M632 410 c0 -14 2 -19 5 -12 2 6 2 18 0 25 -3 6 -5 1 -5 -13z"/>
<path d="M602 375 c0 -16 2 -22 5 -12 2 9 2 23 0 30 -3 6 -5 -1 -5 -18z"/>
<path d="M731 363 c-1 -20 -6 -23 -40 -23 -27 0 -41 5 -44 15 -4 11 -4 10 -3
-2 1 -14 12 -19 44 -21 43 -3 60 11 49 40 -3 7 -6 3 -6 -9z"/>
<path d="M510 348 c0 -15 8 -18 48 -16 47 1 47 1 7 5 -22 3 -43 10 -47 16 -5
8 -8 6 -8 -5z"/>
<path d="M890 338 c0 -5 16 -8 35 -8 19 0 35 3 35 8 0 4 -16 7 -35 7 -19 0
-35 -3 -35 -7z"/>
<path d="M808 333 c12 -2 30 -2 40 0 9 3 -1 5 -23 4 -22 0 -30 -2 -17 -4z"/>
</g>
</svg>
